<svg width="58" height="56" viewBox="0 0 58 56" fill="none" xmlns="http://www.w3.org/2000/svg">
<path fill-rule="evenodd" clip-rule="evenodd" d="M18.6116 0.0292129C18.2008 0.0811055 17.4754 0.500238 16.9994 0.960998C16.5231 1.42147 15.9301 1.79898 15.681 1.79955C15.0643 1.80097 13.4568 2.84367 13.2624 3.3683C13.1757 3.60267 12.864 3.79428 12.5697 3.79428C11.8625 3.79428 10.6737 4.44607 10.0232 5.19081C9.73494 5.52042 9.20251 5.79014 8.83993 5.79014C8.45919 5.79014 7.76184 6.21156 7.18866 6.78808C6.64301 7.33694 5.9988 7.78886 5.75708 7.79228C5.18748 7.80055 4.27319 8.5778 3.66835 9.56804C3.40489 9.99943 2.96523 10.3521 2.69157 10.3521C1.91604 10.3521 0.57036 11.6896 0.210814 12.8182C-0.212052 14.1454 0.0147979 15.8046 0.76968 16.9023C1.20438 17.5347 1.37452 18.2064 1.38416 19.329C1.39352 20.3922 1.53805 21.0058 1.84336 21.2775C2.08866 21.4956 7.49232 24.8809 13.8518 28.8002C20.2113 32.7198 27.3348 37.1113 29.6818 38.5592C35.6033 42.2127 34.2835 42.4919 46.3666 35.0313C51.6502 31.7689 56.2643 28.8116 56.6197 28.4589C56.9754 28.1065 57.2232 27.615 57.1703 27.3666C57.0985 27.0273 54.5701 28.4749 47.0259 33.1746C40.6565 37.1427 36.7254 39.4257 36.2891 39.4103L35.6008 39.3857L36.3334 39.1565C37.039 38.9358 46.4189 33.1997 53.7053 28.5328L57.2185 26.2826L57.186 23.8904C57.1681 22.5745 57.012 21.3129 56.8388 21.0865C56.6657 20.8601 51.3207 17.4731 44.9611 13.5598C38.6016 9.64645 31.6048 5.33309 29.4125 3.97447C25.2756 1.41035 23.9706 0.842386 22.8738 1.12751C22.4614 1.23472 22.038 1.11896 21.7071 0.809027C21.1094 0.248759 19.6957 -0.107361 18.6116 0.0292129ZM20.716 1.32168C21.1801 1.67295 21.1433 1.74452 20.2023 2.31961C18.9766 3.06863 19.0014 3.06778 18.0158 2.3946L17.224 1.85401L18.0158 1.41007C18.9975 0.859209 20.0597 0.824424 20.716 1.32168ZM24.6396 1.81323C25.5814 2.17791 31.6092 5.85829 31.6084 6.06814C31.6081 6.15054 31.0817 6.55399 30.4383 6.96485C27.8518 8.61686 9.6284 19.7455 9.38448 19.822C9.24077 19.867 7.49232 18.9064 5.4994 17.6875C0.999283 14.9349 0.93734 14.7023 4.18482 12.7654C5.47985 11.993 5.54372 11.983 5.90547 12.4954C6.41698 13.2196 6.38119 13.4554 5.67036 14.0516C5.14811 14.4898 5.11315 14.6301 5.42892 15.0239C5.90189 15.6144 7.34613 15.6283 7.56225 15.045C7.652 14.8032 7.45846 13.8834 7.13222 13.0006C6.80626 12.1182 6.63613 11.3101 6.75423 11.2049C6.87261 11.0997 7.42652 10.7308 7.98539 10.3849L9.00153 9.75622L9.32116 10.3749C9.56646 10.8497 9.56178 11.1468 9.30079 11.6517C8.78157 12.6568 9.14111 13.2561 10.1999 13.1503C11.1957 13.0505 11.5252 12.3392 10.9237 11.5884C10.7266 11.3424 10.4224 10.7102 10.2473 10.1833C9.94032 9.25839 9.96207 9.20564 10.8794 8.64509C11.4019 8.32575 11.9437 8.13785 12.0836 8.2271C12.4241 8.44522 12.4084 9.7029 12.0624 9.92444C11.0875 10.5483 12.5373 11.646 13.6454 11.1231C14.3567 10.7875 14.4209 10.4425 13.8909 9.8044C13.5383 9.38014 12.8046 7.46268 12.9557 7.36146C14.6813 6.20871 15.1615 6.0171 15.3897 6.39061C15.7195 6.92978 15.7049 7.78601 15.366 7.78601C15.2146 7.78601 15.0907 8.09822 15.0907 8.47972C15.0907 9.24385 15.8404 9.65072 16.7172 9.36246C17.4933 9.10728 17.6037 8.48571 17.0008 7.76548C16.7073 7.41507 16.4656 6.98766 16.4634 6.81573C16.4614 6.6438 16.3921 6.24206 16.3095 5.92358C16.1916 5.46938 16.4006 5.20364 17.275 4.69441L18.391 4.0449L18.7118 4.77368C18.9791 5.38156 18.9502 5.59683 18.5378 6.06871C17.7091 7.01703 18.8051 7.86699 20.1612 7.32782C20.6725 7.12452 20.7339 6.33131 20.2752 5.85629C20.0985 5.67324 19.8011 5.06365 19.6145 4.50167C19.2783 3.48919 19.285 3.47408 20.3435 2.7818C20.931 2.39774 21.464 2.08353 21.5279 2.08353C21.5917 2.08353 21.7685 2.45305 21.9204 2.90469C22.1365 3.54622 22.1041 3.82193 21.772 4.16551C21.105 4.85636 21.5356 5.50502 22.6615 5.50502C23.7889 5.50502 24.19 4.89571 23.5599 4.14013C23.0605 3.54137 22.5096 1.90846 22.7298 1.68008C22.9765 1.42461 23.7807 1.48078 24.6396 1.81323ZM15.692 3.95138C15.5791 4.95159 15.5708 4.95758 14.9902 4.4532C14.667 4.17264 14.3408 3.89892 14.2653 3.84531C14.0751 3.70988 15.1265 2.9389 15.5009 2.9389C15.6884 2.9389 15.7619 3.32952 15.692 3.95138ZM17.4082 3.11197C17.9993 3.34692 17.9558 3.71216 17.2931 4.0794C16.8097 4.34742 16.7425 4.29609 16.7425 3.66169C16.7425 2.87532 16.7654 2.8565 17.4082 3.11197ZM12.5028 5.90191C12.5028 6.86706 12.5015 6.8682 11.8008 6.41599C11.4148 6.16679 11.0371 5.91332 10.9617 5.85316C10.7764 5.70546 11.8138 4.93477 12.1975 4.93477C12.3655 4.93477 12.5028 5.36987 12.5028 5.90191ZM14.5043 5.31769C14.7424 5.61479 14.6574 5.77304 14.1249 6.02451C13.4942 6.32218 13.4389 6.29111 13.4389 5.64159C13.4389 4.86891 14.0063 4.69641 14.5043 5.31769ZM17.9814 11.3572C12.9846 14.4126 8.85562 17.038 8.80607 17.1917C8.75651 17.3454 11.9776 15.4712 15.964 13.0272C19.9504 10.5831 24.1721 8.00784 25.3458 7.30444C27.3552 6.09979 27.761 5.78216 27.2729 5.79613C27.1595 5.79927 22.9781 8.3018 17.9814 11.3572ZM43.9819 13.5469C56.8859 21.4948 56.6615 21.3442 56.6615 22.0422C56.6615 22.7416 56.6365 22.7584 45.814 29.4164C36.9014 34.899 36.4176 35.1573 35.0772 35.1457C33.74 35.1343 33.1162 34.7878 21.8588 27.8037C15.3605 23.7723 10.0474 20.348 10.0518 20.194C10.0639 19.7632 31.9676 6.39233 32.4191 6.54002C32.6377 6.6113 37.841 9.76449 43.9819 13.5469ZM9.30932 7.4949C9.30932 8.29724 9.27133 8.32604 8.62106 8.01924C8.24252 7.84076 7.93281 7.60638 7.93281 7.49861C7.93281 7.34721 8.81653 6.7838 9.2405 6.6649C9.27849 6.65407 9.30932 7.02758 9.30932 7.4949ZM11.2351 7.20892C11.5883 7.44016 11.5687 7.53938 11.0974 7.90833C10.3668 8.48 10.1352 8.46204 10.1352 7.83363C10.1352 6.95972 10.5204 6.74103 11.2351 7.20892ZM8.05752 9.02402C8.54013 9.38955 8.53379 9.42776 7.91491 9.87683C7.15755 10.4263 6.78314 10.1785 7.01026 9.27807C7.19664 8.53988 7.3643 8.49911 8.05752 9.02402ZM6.00568 9.92444C6.00568 11.0219 5.90244 11.08 4.93475 10.5243L4.27677 10.1468L4.86592 9.53667C5.70009 8.67275 6.00568 8.77653 6.00568 9.92444ZM22.7199 14.5483C17.7554 17.6128 13.7497 20.1781 13.8182 20.2494C13.9336 20.3688 31.6951 9.70917 32.2834 9.16744C32.4401 9.02316 32.385 8.93649 32.1458 8.9516C31.9263 8.96557 27.6845 11.4841 22.7199 14.5483ZM33.949 10.7613C33.6462 10.97 29.5579 13.4814 24.864 16.342C15.6182 21.9769 16.0471 21.7021 16.2183 21.8794C16.3378 22.0034 34.2799 11.1069 34.7611 10.6179C35.1551 10.2175 34.5946 10.3165 33.949 10.7613ZM4.74892 11.8077C4.50885 12.2103 4.07855 12.1054 4.07855 11.644C4.07855 11.3897 4.24016 11.2896 4.48986 11.3888C4.71616 11.4789 4.83289 11.6671 4.74892 11.8077ZM3.25264 12.1438C3.25264 12.565 2.9611 12.9736 2.42838 13.2997C1.6055 13.803 1.11326 14.8979 1.45353 15.4681C1.55237 15.6338 1.51548 15.7695 1.37149 15.7695C0.988822 15.7695 0.736368 14.4665 0.943397 13.5598C1.32827 11.8747 3.25264 10.6948 3.25264 12.1438ZM28.4429 17.1903C23.5976 20.1564 19.4044 22.7268 19.1247 22.9027C18.845 23.0784 18.6785 23.2868 18.7544 23.3658C18.8307 23.4445 22.2186 21.472 26.2834 18.9823C30.348 16.4926 34.5098 13.9547 35.532 13.3425C36.5542 12.7303 37.3903 12.1279 37.3903 12.0036C37.3903 11.8795 37.3592 11.7823 37.3215 11.7877C37.2837 11.7931 33.2883 14.2244 28.4429 17.1903ZM35.4601 16.3711C33.1148 17.7999 29.4615 20.0295 27.3417 21.3263C25.2219 22.6227 22.9619 23.9879 22.3196 24.3597C21.6771 24.7318 21.1507 25.1398 21.1496 25.2667C21.1482 25.3936 21.2404 25.4443 21.3539 25.3796C21.8106 25.119 27.1311 21.8942 32.9854 18.3302C38.4488 15.0042 40.3038 13.7736 39.8551 13.7736C39.7832 13.7736 37.8054 14.9426 35.4601 16.3711ZM6.55629 14.629C6.55629 14.7858 6.37046 14.9141 6.14333 14.9141C5.91621 14.9141 5.73038 14.7858 5.73038 14.629C5.73038 14.4722 5.91621 14.3439 6.14333 14.3439C6.37046 14.3439 6.55629 14.4722 6.55629 14.629ZM35.0502 19.6763C31.1134 22.0893 26.9213 24.6454 25.7342 25.3562C24.5474 26.067 23.6449 26.7197 23.7289 26.8066C23.8594 26.9418 41.4703 16.37 42.1897 15.7244C42.3312 15.5976 42.3931 15.4476 42.3273 15.3911C42.2618 15.3347 38.9871 17.263 35.0502 19.6763ZM7.51985 19.5497C9.94252 21.0431 14.4024 23.7986 17.4308 25.6727C30.5757 33.8073 33.8064 35.7282 34.3427 35.7282C34.7353 35.7282 34.9126 35.9115 34.9126 36.3175C34.9126 37.3876 35.4139 37.6727 13.4425 24.1042C5.97209 19.4906 1.98735 16.8703 1.92403 16.5293C1.83538 16.0529 1.88218 16.0435 2.47106 16.421C2.8251 16.6482 5.09718 18.0559 7.51985 19.5497ZM41.5198 18.7487C39.93 19.7413 35.7798 22.2988 32.2972 24.4321C28.8146 26.5654 26.1202 28.3118 26.3096 28.3129C26.499 28.3141 28.2954 27.3093 30.3015 26.0801C32.3076 24.851 36.2409 22.4556 39.0421 20.7577C45.0319 17.1264 45.3675 16.9037 44.8161 16.9271C44.5931 16.9365 43.1097 17.7562 41.5198 18.7487ZM2.87025 18.1759C4.71175 19.5117 33.5625 37.0988 34.1725 37.2573C34.5794 37.3631 34.9126 37.5843 34.9126 37.7485C34.9126 38.4756 34.7829 38.4003 13.5765 25.3405C7.51985 21.6105 2.38296 18.3801 2.16134 18.162C1.63166 17.6408 2.14647 17.6507 2.87025 18.1759ZM10.7337 24.2254C15.477 27.1513 22.517 31.4926 26.3781 33.8726C30.2393 36.2528 33.7392 38.2877 34.1555 38.3952C34.5717 38.5024 34.9126 38.7248 34.9126 38.889C34.9126 39.6472 35.143 39.7801 16.1919 28.0923C3.8016 20.4504 1.40425 18.9058 1.93366 18.9058C2.0303 18.9058 5.99026 21.2997 10.7337 24.2254ZM43.8522 23.4827C32.9763 30.1172 31.0908 31.2951 31.1874 31.3948C31.341 31.5539 32.5728 30.8363 41.4717 25.403C50.7811 19.719 50.1936 20.0957 50.0237 19.9195C49.9563 19.8499 47.1793 21.4531 43.8522 23.4827ZM14.8553 27.9249C31.9588 38.4836 33.3651 39.3284 34.1968 39.5445C34.996 39.7524 35.1829 40.5756 34.4308 40.5747C34.1657 40.5744 31.5952 39.1209 28.7182 37.3451C25.8413 35.5691 18.8417 31.2514 13.1636 27.7507C7.48544 24.2499 2.62275 21.1925 2.35791 20.9567C1.92293 20.5698 1.70847 20.0463 1.98487 20.0463C2.04461 20.0463 7.83617 23.5916 14.8553 27.9249ZM45.9247 25.4737C42.3664 27.6574 38.2473 30.1819 36.7709 31.0835C35.2944 31.9853 34.0867 32.8179 34.0867 32.9337C34.0867 33.1678 34.4352 32.9627 44.9611 26.5332C49.0494 24.0361 52.5122 21.8757 52.6559 21.7326C53.4267 20.9647 51.7848 21.8771 45.9247 25.4737ZM56.3697 24.717C55.3159 25.7274 36.5512 37.1515 35.9744 37.1338C35.4387 37.117 35.4934 37.0494 36.2891 36.7455C36.819 36.543 38.5534 35.5477 40.1433 34.5338C41.7332 33.5199 45.9754 30.8608 49.5705 28.6252C53.1657 26.3892 56.1825 24.4341 56.2742 24.2801C56.3661 24.1262 56.5145 24.076 56.604 24.1684C56.6932 24.261 56.588 24.508 56.3697 24.717ZM56.664 25.6034C56.2059 26.1751 36.8678 38.1691 36.0826 38.3687C35.7418 38.4551 35.4632 38.4237 35.4632 38.2986C35.4632 38.1734 35.774 37.9903 36.1536 37.8914C36.5333 37.7927 40.0951 35.682 44.0686 33.2011C48.0421 30.72 52.2842 28.0734 53.4956 27.3196C54.7069 26.5657 55.8794 25.7756 56.101 25.5638C56.647 25.042 57.0888 25.0731 56.664 25.6034ZM4.92456 41.8968C4.29136 42.7302 4.165 44.3406 4.69799 44.7823C4.8874 44.9391 5.34605 45.1643 5.71744 45.2827C6.36082 45.4874 6.37018 45.474 5.91098 44.9984C5.24859 44.3127 5.42093 44.2474 6.7903 44.6662C7.53885 44.8952 8.0856 45.2741 8.29511 45.7095C8.66594 46.4796 7.71284 46.1352 25.9487 52.0926L37.5279 55.8753L40.0745 55.7461C41.475 55.6751 42.6211 55.5061 42.6211 55.3704C42.6211 55.2346 42.1255 54.7998 41.5198 54.4038C40.9142 54.0077 40.4186 53.5803 40.4186 53.454C40.4186 53.3277 40.0161 52.7706 39.5239 52.2163C38.8497 51.4565 38.1884 51.0852 36.8397 50.7089C30.5402 48.9519 16.1746 44.5354 7.51985 41.695C5.45287 41.0166 5.60181 41.005 4.92456 41.8968ZM8.12607 42.2991L8.95198 42.5974L8.51122 43.5742C8.21609 44.2286 7.93391 44.5 7.6575 44.3965C7.43038 44.3112 6.65595 44.1684 5.93685 44.0794C5.21776 43.9902 4.62916 43.7932 4.62916 43.6415C4.62916 43.4895 4.81389 43.4391 5.03992 43.5289C5.30779 43.6352 5.59768 43.398 5.87298 42.8466C6.32476 41.9416 6.80984 41.8238 8.12607 42.2991ZM17.4049 45.4421C21.6589 46.7071 26.7498 48.2388 28.7182 48.8456C30.6867 49.452 33.454 50.2672 34.868 50.6567C36.2819 51.0464 37.5098 51.4385 37.5965 51.5283C37.6829 51.6181 37.5483 51.9269 37.297 52.2149C37.0453 52.5026 36.8397 52.8923 36.8397 53.0808C36.8397 53.2696 36.6773 53.4882 36.4788 53.5672C36.1335 53.7044 9.20333 45.1227 8.85893 44.7657C8.59574 44.4932 9.01089 43.1414 9.3575 43.1414C9.52984 43.1414 13.1512 44.1767 17.4049 45.4421ZM11.3945 46.1072C18.0337 48.1906 35.9367 54.0688 36.2891 54.2806C37.2262 54.8443 35.6498 54.3952 25.8165 51.2985C20.1444 49.5125 14.1409 47.6372 12.4753 47.1314C10.8097 46.6259 9.26555 46.0345 9.04393 45.8173C8.48451 45.2695 8.88068 45.3183 11.3945 46.1072ZM39.6984 53.6237C39.359 54.1842 36.8397 54.5087 36.8397 53.9918C36.8397 53.8264 37.0875 53.691 37.3903 53.691C37.6931 53.691 37.9409 53.5407 37.9409 53.3571C37.9409 53.1735 38.1499 52.784 38.4053 52.4915C38.8577 51.974 38.8844 51.9754 39.4339 52.5445C39.8777 53.0041 39.9341 53.2342 39.6984 53.6237ZM41.1151 55.0604C40.9032 55.28 39.8655 54.7813 40.0145 54.5315C40.1023 54.3844 40.3955 54.4195 40.6942 54.6128C40.983 54.7995 41.1724 55.0011 41.1151 55.0604ZM39.3174 55.0142C39.3174 55.0784 39.0088 55.2523 38.6316 55.4009C37.9178 55.6817 37.115 55.52 37.115 55.0949C37.115 54.9601 37.3008 54.9233 37.5279 55.0134C37.7551 55.1038 37.9409 55.0533 37.9409 54.9016C37.9409 54.7496 38.2506 54.6866 38.6292 54.7616C39.0077 54.8366 39.3174 54.9504 39.3174 55.0142Z" fill="black"/>
</svg>
