<svg width="201" height="211" viewBox="0 0 201 211" fill="none" xmlns="http://www.w3.org/2000/svg">
<path fill-rule="evenodd" clip-rule="evenodd" d="M131.852 5.49339C129.123 8.49439 123.723 13.0094 119.852 15.5274C106.09 24.4774 104.939 25.3654 102.209 29.1294C100.618 31.3224 98.7629 35.9454 97.8339 40.0304C96.9459 43.9324 95.0819 49.0664 93.6909 51.4404C91.7259 54.7944 91.2209 56.8834 91.4289 60.8074C91.6639 65.2304 91.2619 66.4444 88.1909 70.5894C82.1839 78.6994 79.2289 87.9584 81.6099 91.2144C83.5009 93.8004 85.8119 92.8224 93.4089 86.2194C99.4159 80.9974 112.705 71.7224 118.313 68.8374L120.813 67.5514L118.313 70.2854C116.938 71.7894 113.257 74.8184 110.133 77.0164C100.847 83.5514 101.299 86.3114 111.546 85.6584C119.032 85.1814 127.112 81.5124 133.973 75.4724C136.662 73.1054 144.192 62.8124 153.016 49.4394C161.044 37.2754 170.947 23.0474 175.024 17.8224C182.126 8.72039 182.2 8.57439 176.774 14.3224C173.659 17.6224 164.567 30.2224 156.57 42.3224C136.316 72.9664 134.07 75.6564 124.814 80.3544C117.007 84.3174 106.33 86.2764 104.925 84.0034C104.571 83.4314 107.101 80.8354 110.547 78.2344C121.516 69.9554 126.125 64.8534 121.557 66.0484C118.117 66.9484 101.706 77.7534 95.3129 83.3284C87.1559 90.4424 83.9159 92.2544 82.4709 90.5134C80.9679 88.7024 82.8069 81.4494 86.3299 75.2924C89.2269 70.2284 98.8419 60.3164 105.121 55.9204C106.94 54.6464 108.219 53.3954 107.964 53.1394C107.103 52.2794 101.119 55.9594 96.5529 60.1574L92.0219 64.3224L92.5129 59.1574C93.1539 52.4014 97.7199 45.9494 106.537 39.3414C110.193 36.6014 113.03 34.2064 112.843 34.0194C112.31 33.4864 104.117 38.7794 101.063 41.6304C97.8819 44.5984 97.7499 44.0804 99.8689 36.9444C101.855 30.2574 106.513 25.1194 115.348 19.8704C123.603 14.9664 133.237 7.14239 136.278 2.87239C139.685 -1.91261 137.305 -0.502614 131.852 5.49339ZM40.5869 79.7874C39.3619 80.3114 33.7369 83.9814 28.0869 87.9424C22.4359 91.9034 14.8879 97.1444 11.3129 99.5884C1.91594 106.012 -0.48906 108.813 0.0779399 112.677C0.72594 117.088 8.17494 123.273 8.38294 119.572C8.42194 118.885 8.78694 119.171 9.19394 120.209C10.1359 122.607 28.0229 131.137 28.6369 129.48C28.9369 128.667 30.0209 128.844 32.2699 130.072C34.0329 131.035 36.2259 131.829 37.1439 131.837C38.4399 131.849 38.5149 132.042 37.4789 132.698C36.4119 133.375 36.4719 133.669 37.7809 134.171C38.8409 134.578 39.1729 134.405 38.7259 133.681C38.3079 133.005 38.5839 132.754 39.4239 133.046C40.1879 133.312 40.7009 134.183 40.5629 134.983C40.4059 135.902 42.8979 137.686 47.3439 139.837L54.3729 143.238L53.7309 147.523C52.7899 153.797 53.9139 157.996 57.7289 162.452C60.3349 165.497 60.9949 167.036 60.5939 169.134C60.2339 171.013 60.8479 173.033 62.5699 175.634C63.9429 177.71 65.3959 181.353 65.7979 183.731C66.2739 186.55 67.7119 189.365 69.9309 191.821C74.3649 196.729 90.2259 206.159 97.7009 208.333C105.733 210.667 121.037 209.988 131.371 206.838L138.929 204.534L165.371 207.187C179.914 208.646 193.838 210.103 196.313 210.424C198.788 210.746 200.546 210.737 200.219 210.405C199.556 209.73 183.793 207.851 156.813 205.231L138.813 203.484L128.732 206.153C110.831 210.892 99.5209 209.604 84.7439 201.143C73.6279 194.777 69.5099 191.163 67.8579 186.322C66.2819 181.707 66.5869 180.873 69.0569 183.045C71.7089 185.376 78.3779 188.495 82.3129 189.244C84.9739 189.75 83.8129 188.842 77.4759 185.459C72.8909 183.011 68.0109 179.953 66.6309 178.665C63.3379 175.589 61.0189 171.031 61.7609 169.096C62.2939 167.707 62.5329 167.711 64.1019 169.131C66.4789 171.282 74.3559 174.779 76.8129 174.774C77.9129 174.771 75.4779 173 71.4029 170.836C58.8189 164.158 53.7099 157.861 54.5839 150.107C54.8559 147.696 55.2869 145.514 55.5419 145.259C55.7979 145.004 62.1819 147.723 69.7299 151.301C88.0559 159.988 96.8319 163.035 102.384 162.638C106.662 162.333 106.808 162.213 106.673 159.144C106.592 157.303 104.433 152.462 101.544 147.644C94.2319 135.449 93.1629 133.036 93.5039 129.508C93.7609 126.862 94.2819 126.268 96.5839 126.004C101.849 125.398 107.876 130.821 117.074 144.438C122.021 151.761 126.058 155.335 132.98 158.517C141.591 162.476 147.606 162.965 175.313 161.96L200.813 161.036L172.313 161.179C146.865 161.307 143.217 161.121 138.252 159.449C132.216 157.416 124.609 152.735 125.148 151.386C125.333 150.924 124.883 150.149 124.148 149.663C123.1 148.971 123.319 148.357 125.167 146.807C126.462 145.721 127.932 145.086 128.433 145.396C129.802 146.242 128.457 147.815 126.882 147.21C126.13 146.922 125.266 147.09 124.961 147.583C124.655 148.077 125.299 148.415 126.39 148.335C128.802 148.157 143.313 138.227 143.313 136.754C143.313 136.176 143.732 135.963 144.245 136.28C145.525 137.071 148.313 132.874 148.313 130.155C148.313 125.989 143.816 123.049 121.313 112.507C108.938 106.71 92.5129 98.9544 84.8129 95.2724C56.0709 81.5264 51.7059 79.6614 47.3129 79.2534C44.8379 79.0224 41.8109 79.2634 40.5869 79.7874ZM61.8129 85.8864C67.3129 88.4874 78.5059 93.8124 86.6859 97.7194C94.8659 101.625 101.672 104.822 101.809 104.822C102.275 104.822 139.794 122.826 142.313 124.258C145.418 126.023 145.97 128.919 143.607 131.052C139.893 134.404 121.762 146.805 120.563 146.814C117.771 146.832 119.808 144.897 129.866 137.973C135.67 133.978 140.682 130.024 141.003 129.188C141.324 128.351 140.962 127.052 140.2 126.3C139.076 125.192 107.29 109.943 79.3129 97.0914C76.2879 95.7014 68.6379 92.1034 62.3129 89.0964C48.1379 82.3564 44.8739 81.7604 39.6339 84.9544C33.0889 88.9454 6.77594 107.56 5.48894 109.11C3.33094 111.71 5.23994 113.457 15.6159 118.373C83.9249 150.739 97.8239 156.865 101.563 156.257C103.972 155.864 105.313 156.035 105.313 156.734C105.313 157.368 103.297 157.822 100.486 157.822C96.3249 157.822 91.0079 155.617 61.9059 141.822C43.3419 133.022 27.9639 125.822 27.7329 125.822C27.5019 125.822 27.3129 126.534 27.3129 127.405C27.3129 128.276 26.7789 128.811 26.1259 128.593C24.2469 127.967 24.0409 126.023 25.8129 125.656C26.6989 125.472 21.7869 122.679 14.8969 119.449C1.09494 112.979 -0.575061 111.204 3.45694 107.295C8.07494 102.819 39.6859 81.4924 42.7219 80.8054C47.3439 79.7604 50.8059 80.6814 61.8129 85.8864ZM63.8129 91.2554C71.5129 94.8934 91.5349 104.288 108.306 112.133C127.638 121.175 138.913 126.982 139.109 127.999C139.313 129.06 136.01 132.004 129.331 136.712C123.783 140.622 118.922 143.81 118.529 143.796C118.135 143.782 116.313 141.558 114.479 138.854C112.645 136.151 108.952 131.887 106.272 129.38C102.164 125.538 100.769 124.822 97.3909 124.822C89.5169 124.822 89.7819 129.836 98.4409 144.666C101.121 149.255 103.313 153.418 103.313 153.916C103.313 156.446 95.5569 154.362 83.1719 148.503C75.8239 145.028 55.5259 135.504 38.0629 127.34C15.8479 116.953 6.31894 112.019 6.33294 110.909C6.34394 110.035 10.9189 106.175 16.5099 102.322C44.7359 82.8704 43.5309 83.5954 46.7569 84.1324C48.4379 84.4114 56.1129 87.6174 63.8129 91.2554ZM31.0459 130.946C31.7249 131.63 32.5319 131.937 32.8389 131.629C33.1469 131.321 32.5919 130.762 31.6059 130.386C30.1809 129.844 30.0659 129.958 31.0459 130.946ZM103.996 161.01C103.677 161.807 103.44 161.57 103.392 160.405C103.349 159.351 103.585 158.761 103.917 159.093C104.249 159.425 104.285 160.288 103.996 161.01Z" fill="#000339"/>
</svg>
